<svg width="1200" height="800" viewBox="0 0 1200 800" fill="none" xmlns="http://www.w3.org/2000/svg">
  <rect width="1200" height="800" fill="#0A0A0D"/>
  <circle cx="1000" cy="90" r="260" fill="#334BFF" fill-opacity="0.18"/>
  <circle cx="180" cy="730" r="300" fill="#16C79A" fill-opacity="0.1"/>
  <path d="M0 610L1200 200" stroke="white" stroke-opacity="0.1"/>
  <path d="M0 670L1200 260" stroke="white" stroke-opacity="0.06"/>
  <rect x="82" y="80" width="1036" height="640" rx="32" stroke="white" stroke-opacity="0.18"/>
  <rect x="122" y="120" width="300" height="560" rx="18" fill="white" fill-opacity="0.04" stroke="white" stroke-opacity="0.12"/>
  <rect x="152" y="172" width="240" height="330" rx="12" fill="#151823"/>
  <path d="M170 456C225 368 257 402 300 330C326 286 357 292 374 246" stroke="#80FFD7" stroke-width="4"/>
  <circle cx="190" cy="210" r="7" fill="#80FFD7"/>
  <circle cx="350" cy="470" r="7" fill="#8090FF"/>
  <text x="152" y="570" fill="white" fill-opacity="0.82" font-family="Arial, sans-serif" font-size="18" letter-spacing="4">TIKTOK ADS</text>
  <text x="152" y="604" fill="white" fill-opacity="0.38" font-family="Arial, sans-serif" font-size="13" letter-spacing="3">AI CREATIVE SYSTEM</text>
  <text x="500" y="210" fill="white" fill-opacity="0.92" font-family="Arial, sans-serif" font-size="54" letter-spacing="8">AI 广告创意</text>
  <text x="504" y="264" fill="white" fill-opacity="0.42" font-family="Arial, sans-serif" font-size="18" letter-spacing="5">FROM PRODUCT FACTS TO B-ROLL</text>
  <line x1="504" y1="330" x2="1040" y2="330" stroke="white" stroke-opacity="0.18"/>
  <text x="504" y="390" fill="#80FFD7" font-family="Arial, sans-serif" font-size="64">50 → 90%</text>
  <text x="506" y="425" fill="white" fill-opacity="0.42" font-family="Arial, sans-serif" font-size="16" letter-spacing="3">GENERATE SUCCESS RATE</text>
  <text x="504" y="520" fill="white" fill-opacity="0.9" font-family="Arial, sans-serif" font-size="62">4,000</text>
  <text x="506" y="555" fill="white" fill-opacity="0.42" font-family="Arial, sans-serif" font-size="16" letter-spacing="3">B-ROLL ASSETS / DAY</text>
  <text x="504" y="660" fill="white" fill-opacity="0.28" font-family="monospace" font-size="14" letter-spacing="2">RISK AGENT · AIGC WORKFLOW · REVIEW LOOP</text>
</svg>
